<svg width="512" height="512" viewBox="0 0 512 512" fill="none" xmlns="http://www.w3.org/2000/svg">
  <g clip-path="url(#a)">
    <path
      d="M137.701 21.599c-1.003.085-2.005.149-2.987.555-.256.107-.427.32-.683.448-.533.277-.981.597-1.472.96-1.003.725-1.835 1.536-2.517 2.517-.171.256-.491.363-.64.64L1.407 250.71a10.65 10.65 0 0 0 0 10.581l127.995 223.991c.171.256.469.363.64.619a10.3 10.3 0 0 0 2.624 2.645c.427.299.811.597 1.28.832.277.149.469.384.768.512 1.173.469 2.389.619 3.584.661.128 0 .256.107.384.107h234.657c.213 0 .405-.149.619-.171 1.493-.085 2.987-.32 4.352-1.045.085-.043.107-.128.192-.171.491-.277.811-.768 1.259-1.131.981-.789 1.941-1.557 2.603-2.603.064-.107.192-.149.235-.235l127.995-223.991a10.76 10.76 0 0 0 1.408-5.312c0-1.835-.469-3.648-1.408-5.291L382.599 26.717c-.064-.107-.192-.149-.256-.256-.597-.981-1.493-1.664-2.389-2.411-.512-.427-.896-1.003-1.472-1.323-.064-.043-.107-.107-.171-.149-1.109-.576-2.325-.683-3.52-.853-.491-.064-.939-.384-1.451-.384H138.682c-.341.002-.64.236-.981.258m-.726 34.9 31.295 78.248-125.179 86.054zM29.503 256l141.178-97.063v194.126zm13.61 35.263 125.158 86.033-31.296 78.227zm111.313 178.062 32.319-80.765 145.401 80.765zm48.958-95.954L382.15 275.05l-17.876 187.704zm279.562-106.705-94.332 165.113 15.572-165.113zM372.53 255.999 192.014 355.28V156.717zm110.416-10.666h-78.568L388.656 80.305zm-100.604-8.32-178.894-98.407 160.846-89.361zM332.19 42.674l-145.445 80.808-32.319-80.808z"
      fill="#0A0A0A" />
  </g>
  <defs>
    <clipPath id="a">
      <path fill="#fff" d="M0 512V0h512v512z" />
    </clipPath>
  </defs>
</svg>