<svg width="4769" height="1024" viewBox="0 0 4769 1024" fill="none"
    xmlns="http://www.w3.org/2000/svg">
    <path
        d="M275.402 43.198c-2.006.17-4.01.298-5.974 1.11-.512.214-.854.64-1.366.896-1.066.554-1.962 1.194-2.944 1.92-2.006 1.45-3.67 3.072-5.034 5.034-.342.512-.982.726-1.28 1.28L2.814 501.42a21.3 21.3 0 0 0 0 21.162l255.99 447.982c.342.512.938.726 1.28 1.238a20.6 20.6 0 0 0 5.248 5.29c.854.598 1.622 1.194 2.56 1.664.554.298.938.768 1.536 1.024 2.346.938 4.778 1.238 7.168 1.322.256 0 .512.214.768.214h469.314c.426 0 .81-.298 1.238-.342 2.986-.17 5.974-.64 8.704-2.09.17-.086.214-.256.384-.342.982-.554 1.622-1.536 2.518-2.262 1.962-1.578 3.882-3.114 5.206-5.206.128-.214.384-.298.47-.47l255.992-447.982a21.5 21.5 0 0 0 2.81-10.624c0-3.67-.93-7.296-2.81-10.582L765.198 53.434c-.128-.214-.384-.298-.512-.512-1.194-1.962-2.986-3.328-4.778-4.822-1.024-.854-1.792-2.006-2.944-2.646-.128-.086-.214-.214-.342-.298-2.218-1.152-4.65-1.366-7.04-1.706-.982-.128-1.878-.768-2.902-.768H277.364c-.682.004-1.28.472-1.962.516m-1.452 69.8 62.59 156.496L86.182 441.602zM59.006 512l282.356-194.126v388.252zm27.22 70.526 250.316 172.066-62.592 156.454zM308.852 938.65l64.638-161.53 290.802 161.53zm97.916-191.908L764.3 550.1l-35.752 375.408zm559.124-213.41L777.228 863.558l31.144-330.226zM745.06 511.998 384.028 710.56V313.434zm220.832-21.332H808.756L777.312 160.61zm-201.208-16.64L406.896 277.212 728.588 98.49zM664.38 85.348 373.49 246.964 308.852 85.348zm701.89 782.1q-68.355 0-107.52-26.88-38.4-26.88-53.76-72.96-15.36-46.848-15.36-107.52V438.136q0-63.744 15.36-110.592t53.76-72.192q39.165-25.344 107.52-25.344c43.01 0 76.55 7.424 100.61 22.272 24.58 14.336 41.98 35.072 52.22 62.208q15.36 40.704 15.36 94.464v52.224h-109.05v-53.76c0-17.408-1.03-33.28-3.07-47.616-1.54-14.336-6.4-25.6-14.6-33.792-7.68-8.704-21.24-13.056-40.7-13.056s-33.79 4.608-43.01 13.824q-13.05 13.056-16.89 36.096-3.84 22.272-3.84 50.688v270.336q0 33.792 5.37 56.064 5.385 21.504 19.2 33.024c9.73 7.168 22.79 10.752 39.17 10.752 18.94 0 32.26-4.352 39.94-13.056q12.285-13.824 15.36-36.096c2.04-14.848 3.07-31.488 3.07-49.92V628.6h109.05v49.92c0 36.864-4.86 69.632-14.59 98.304q-14.595 42.24-51.45 66.816-36.105 23.808-102.15 23.808m416.29 0c-44.03 0-79.11-8.192-105.22-24.576s-44.8-39.936-56.06-70.656c-11.27-30.72-16.9-67.072-16.9-109.056V430.456c0-41.984 5.63-77.824 16.9-107.52 11.26-30.208 29.95-53.248 56.06-69.12s61.19-23.808 105.22-23.808c45.05 0 80.38 7.936 105.98 23.808q39.165 23.808 56.07 69.12c11.77 29.696 17.66 65.536 17.66 107.52v233.472c0 41.472-5.89 77.568-17.66 108.288q-16.905 45.312-56.07 70.656c-25.6 16.384-60.93 24.576-105.98 24.576m0-83.712c18.94 0 32.77-4.096 41.47-12.288 9.22-8.192 15.36-19.456 18.43-33.792s4.61-29.952 4.61-46.848V404.344c0-17.408-1.54-33.024-4.61-46.848s-9.21-24.576-18.43-32.256c-8.7-8.192-22.53-12.288-41.47-12.288q-26.88 0-40.71 12.288c-9.21 7.68-15.36 18.432-18.43 32.256s-4.61 29.44-4.61 46.848v286.464q0 25.344 3.84 46.848c3.08 14.336 9.22 25.6 18.44 33.792 9.21 8.192 23.04 12.288 41.47 12.288M2046.35 859V236.92h79.1l151.3 354.816V236.92h93.69V859h-75.26l-152.06-371.712V859zm418.5 0V236.92h79.1l151.3 354.816V236.92h93.69V859h-75.26l-152.06-371.712V859zm418.5 0V236.92h261.12v79.872h-147.46v178.944h115.97v79.104h-115.97v205.824H3146V859zm495.92 8.448q-68.355 0-107.52-26.88-38.4-26.88-53.76-72.96-15.36-46.848-15.36-107.52V438.136q0-63.744 15.36-110.592t53.76-72.192q39.165-25.344 107.52-25.344c43.01 0 76.55 7.424 100.61 22.272 24.58 14.336 41.98 35.072 52.22 62.208q15.36 40.704 15.36 94.464v52.224h-109.05v-53.76c0-17.408-1.03-33.28-3.07-47.616-1.54-14.336-6.4-25.6-14.6-33.792-7.68-8.704-21.24-13.056-40.7-13.056s-33.79 4.608-43.01 13.824q-13.05 13.056-16.89 36.096-3.84 22.272-3.84 50.688v270.336q0 33.792 5.37 56.064 5.385 21.504 19.2 33.024c9.73 7.168 22.79 10.752 39.17 10.752 18.94 0 32.26-4.352 39.94-13.056q12.285-13.824 15.36-36.096c2.04-14.848 3.07-31.488 3.07-49.92V628.6h109.05v49.92c0 36.864-4.86 69.632-14.59 98.304q-14.595 42.24-51.45 66.816-36.105 23.808-102.15 23.808M3688.81 859V320.632h-99.08V236.92h310.28v83.712h-97.54V859zm432.25 8.448c-44.03 0-79.11-8.192-105.22-24.576s-44.8-39.936-56.06-70.656c-11.27-30.72-16.9-67.072-16.9-109.056V430.456c0-41.984 5.63-77.824 16.9-107.52 11.26-30.208 29.95-53.248 56.06-69.12s61.19-23.808 105.22-23.808c45.05 0 80.38 7.936 105.98 23.808q39.165 23.808 56.07 69.12c11.77 29.696 17.66 65.536 17.66 107.52v233.472c0 41.472-5.89 77.568-17.66 108.288q-16.905 45.312-56.07 70.656c-25.6 16.384-60.93 24.576-105.98 24.576m0-83.712c18.94 0 32.77-4.096 41.47-12.288 9.22-8.192 15.36-19.456 18.43-33.792s4.61-29.952 4.61-46.848V404.344c0-17.408-1.54-33.024-4.61-46.848s-9.21-24.576-18.43-32.256c-8.7-8.192-22.53-12.288-41.47-12.288q-26.88 0-40.71 12.288c-9.21 7.68-15.36 18.432-18.43 32.256s-4.61 29.44-4.61 46.848v286.464q0 25.344 3.84 46.848c3.08 14.336 9.22 25.6 18.44 33.792 9.21 8.192 23.04 12.288 41.47 12.288M4384.85 859V236.92h148.99c41.98 0 77.31 5.12 105.98 15.36 29.19 9.728 51.2 26.624 66.05 50.688q23.04 36.096 23.04 98.304c0 25.088-2.3 47.616-6.91 67.584s-12.54 37.12-23.81 51.456c-10.75 13.824-25.85 24.576-45.31 32.256L4739.66 859H4626l-75.26-284.928h-52.23V859zm113.66-356.352h35.33c22.02 0 39.42-3.072 52.22-9.216 13.32-6.656 22.79-16.896 28.42-30.72 5.63-14.336 8.45-32.512 8.45-54.528q0-46.848-17.67-69.888-16.89-23.808-65.28-23.808h-41.47z"
        fill="#0A0A0A" />
</svg>