<svg width="96" height="96" viewBox="0 0 96 96" fill="none" xmlns="http://www.w3.org/2000/svg">
<circle cx="48" cy="48" r="48" fill="#0A0A0A"/>
<g clip-path="url(#clip0_14_19)">
<path d="M29.9779 12.2906C29.8251 12.3035 29.6724 12.3133 29.5228 12.3751C29.4838 12.3914 29.4578 12.4239 29.4188 12.4434C29.3376 12.4856 29.2693 12.5343 29.1945 12.5896C29.0417 12.7001 28.915 12.8236 28.8111 12.9731C28.785 13.0121 28.7363 13.0284 28.7136 13.0706L9.21435 47.1942C9.07389 47.4396 9 47.7174 9 48.0002C9 48.2829 9.07389 48.5608 9.21435 48.8062L28.7136 82.9298C28.7396 82.9688 28.785 82.9851 28.8111 83.0241C28.9187 83.1816 29.0542 83.3181 29.2108 83.427C29.2759 83.4726 29.3344 83.518 29.4058 83.5538C29.448 83.5765 29.4773 83.6123 29.5228 83.6318C29.7015 83.7032 29.8868 83.7261 30.0688 83.7325C30.0883 83.7325 30.1078 83.7488 30.1273 83.7488H65.8759C65.9083 83.7488 65.9376 83.7261 65.9702 83.7227C66.1976 83.7098 66.4252 83.674 66.6332 83.5635C66.6461 83.557 66.6495 83.544 66.6624 83.5375C66.7372 83.4953 66.786 83.4205 66.8542 83.3652C67.0037 83.245 67.1499 83.128 67.2508 82.9686C67.2605 82.9523 67.28 82.9459 67.2866 82.9328L86.7858 48.8092C86.9289 48.5557 87.0003 48.2795 87.0003 47.9999C87.0003 47.7204 86.9289 47.4442 86.7858 47.1939L67.2866 13.0703C67.2768 13.054 67.2573 13.0476 67.2476 13.0313C67.1566 12.8818 67.0201 12.7778 66.8836 12.664C66.8056 12.5989 66.7471 12.5112 66.6594 12.4624C66.6496 12.4559 66.6431 12.4461 66.6333 12.4397C66.4644 12.352 66.2791 12.3357 66.0971 12.3098C66.0223 12.3 65.954 12.2513 65.876 12.2513H30.1273C30.0754 12.2516 30.0298 12.2872 29.9779 12.2906ZM29.8673 17.6074L34.6349 29.528L15.5646 42.6378L29.8673 17.6074ZM13.4946 48.0001L35.0022 33.2132L35.0022 62.787L13.4946 48.0001ZM15.568 53.3722L34.635 66.4788L29.8673 78.3962L15.568 53.3722ZM32.5258 80.4988L37.4494 68.1948L59.6004 80.4988H32.5258ZM39.9843 65.8808L67.2182 50.9023L64.4949 79.4978L39.9843 65.8808ZM82.5738 49.625L68.2029 74.7789L70.5752 49.625H82.5738ZM65.7526 47.9999L38.2521 63.1248L38.2521 32.875L65.7526 47.9999ZM82.5738 46.3751H70.6045L68.2093 21.2341L82.5738 46.3751ZM67.2474 45.1076L39.994 30.1159L64.4979 16.5023L67.2474 45.1076ZM59.6071 15.5012L37.4494 27.8118L32.5258 15.5012H59.6071Z" fill="#FAFAFA"/>
</g>
<defs>
<clipPath id="clip0_14_19">
<rect width="78" height="78" fill="white" transform="matrix(0 -1 1 0 9 87)"/>
</clipPath>
</defs>
</svg>
