<svg xmlns="http://www.w3.org/2000/svg" viewBox="0 0 512 512" xml:space="preserve"
    transform="rotate(-90)" width="512" height="512">
    <path fill="#000000" d="M490.401 137.701c-.085-1.003-.149-2.005-.555-2.987-.107-.256-.32-.427-.448-.683-.277-.533-.597-.981-.96-1.472-.725-1.003-1.536-1.835-2.517-2.517-.256-.171-.363-.491-.64-.64L261.29 1.407a10.65 10.65 0 0 0-10.581 0L26.718 129.402c-.256.171-.363.469-.619.64a10.3 10.3 0 0 0-2.645 2.624c-.299.427-.597.811-.832 1.28-.149.277-.384.469-.512.768-.469 1.173-.619 2.389-.661 3.584 0 .128-.107.256-.107.384v234.657c0 .213.149.405.171.619.085 1.493.32 2.987 1.045 4.352.043.085.128.107.171.192.277.491.768.811 1.131 1.259.789.981 1.557 1.941 2.603 2.603.107.064.149.192.235.235l223.991 127.995c1.664.939 3.477 1.408 5.312 1.408s3.648-.469 5.291-1.408l223.991-127.995c.107-.064.149-.192.256-.256.981-.597 1.664-1.493 2.411-2.389.427-.512 1.003-.896 1.323-1.472.043-.064.107-.107.149-.171.576-1.109.683-2.325.853-3.52.064-.491.384-.939.384-1.451V138.682c-.002-.341-.236-.64-.258-.981m-34.9-.726-78.248 31.295-86.054-125.179zM256 29.503l97.063 141.178H158.937zm-35.263 13.61-86.033 125.158-78.227-31.296zM42.675 154.426l80.765 32.319-80.765 145.401zm95.954 48.958L236.95 382.15 49.246 364.274zm106.705 279.562L80.221 388.614l165.113 15.572zm10.667-110.416L156.72 192.014h198.563zm10.666 110.416v-78.568l165.028-15.722zm8.32-100.604 98.407-178.894 89.361 160.846zm194.339-50.152-80.808-145.445 80.808-32.319z"/>
  </svg>
  